<?xml version="1.0"?>
<svg xmlns="http://www.w3.org/2000/svg" height="512px" viewBox="0 -23 512 512" width="512px"><g><path d="m117.183594 135.394531h-16.003906c-4.148438 0-7.511719 3.363281-7.511719 7.511719s3.363281 7.507812 7.511719 7.507812h16.003906c4.148437 0 7.507812-3.359374 7.507812-7.507812s-3.359375-7.511719-7.507812-7.511719zm0 0" data-original="#000000" class="active-path" data-old_color="#000000" fill="#684966"/><path d="m417.4375 142.90625c0-4.148438-3.363281-7.511719-7.511719-7.511719h-16.003906c-4.148437 0-7.511719 3.363281-7.511719 7.511719s3.363282 7.507812 7.511719 7.507812h16.003906c4.148438 0 7.511719-3.359374 7.511719-7.507812zm0 0" data-original="#000000" class="active-path" data-old_color="#000000" fill="#684966"/><path d="m511.996094 20.742188c0-11.4375-9.304688-20.742188-20.742188-20.742188h-470.511718c-11.4375 0-20.742188 9.304688-20.742188 20.742188v424.269531c0 11.4375 9.304688 20.742187 20.742188 20.742187h197.835937c.386719.0625.777344.101563 1.179687.101563h72.484376c.402343 0 .792968-.039063 1.179687-.101563h197.835937c11.4375 0 20.742188-9.304687 20.742188-20.742187zm-299.746094 429.992187h-191.507812c-3.15625 0-5.722657-2.566406-5.722657-5.722656v-36.257813c1.820313.523438 3.738281.820313 5.722657.820313h191.507812zm0-56.179687h-191.507812c-3.15625 0-5.722657-2.566407-5.722657-5.722657v-35.441406c1.820313.523437 3.738281.820313 5.722657.820313h191.507812zm0-55.363282h-191.507812c-3.15625 0-5.722657-2.566406-5.722657-5.722656v-46.15625h197.230469zm0-148.355468c-13.011719-11.882813-21.195312-28.960938-21.195312-47.929688 0-18.972656 8.179687-36.058594 21.195312-47.941406zm0-147.691407h-42.363281c-4.144531 0-7.507813 3.363281-7.507813 7.511719s3.363282 7.507812 7.507813 7.507812h42.363281v17.851563c-21.792969 14.296875-36.214844 38.9375-36.214844 66.890625s14.421875 52.59375 36.214844 66.894531v17.84375h-110.574219c-.113281-1.417969-.292969-2.855469-.53125-4.292969-3.140625-18.859374-18.746093-33.265624-37.953125-35.03125-.425781-.039062-.851562-.074218-1.269531-.101562v-90.628906c.421875-.027344.847656-.0625 1.269531-.101563 19.207032-1.765625 34.8125-16.167969 37.953125-35.03125.238281-1.4375.417969-2.875.53125-4.292969h33.667969c4.148438 0 7.511719-3.359374 7.511719-7.507812s-3.363281-7.511719-7.511719-7.511719h-35.585938c-7.023437 0-12.71875 5.445313-12.96875 12.394531-.054687 1.441407-.207031 2.9375-.460937 4.453126-2.019531 12.128906-12.097656 21.398437-24.515625 22.542968-.785156.070313-1.566406.117188-2.320312.140625-7.058594.207031-12.589844 5.90625-12.589844 12.972657v94.515624c0 7.066407 5.53125 12.761719 12.585937 12.96875.746094.023438 1.527344.070313 2.328125.144532 12.414063 1.140625 22.492188 10.410156 24.511719 22.542968.253906 1.511719.40625 3.011719.460937 4.445313.25 6.953125 5.945313 12.398437 12.96875 12.398437h112.492188v28.128907h-197.230469v-250.050781c0-3.15625 2.566407-5.722657 5.722657-5.722657h191.507812zm87.5 51.816407c13.015625 11.882812 21.195312 28.972656 21.195312 47.945312 0 18.96875-8.183593 36.046875-21.195312 47.925781zm0 114.828124c21.789062-14.296874 36.214844-38.929687 36.214844-66.882812s-14.425782-52.582031-36.214844-66.882812v-17.859376h109.792969c.113281 1.417969.292969 2.855469.535156 4.300782 3.140625 18.863281 18.753906 33.265625 37.972656 35.027344.417969.035156.832031.070312 1.25.097656v90.628906c-.417969.027344-.835937.0625-1.253906.101562-19.214844 1.757813-34.828125 16.160157-37.96875 35.023438-.242187 1.441406-.421875 2.882812-.535156 4.300781h-109.792969zm0 32.875h111.714844c7.019531 0 12.714844-5.445312 12.96875-12.398437.050781-1.433594.203125-2.933594.457031-4.453125 2.023437-12.132812 12.105469-21.398438 24.519531-22.539062.796875-.070313 1.574219-.117188 2.3125-.140626 7.066406-.207031 12.59375-5.902343 12.59375-12.972656v-94.511718c0-7.070313-5.527344-12.765626-12.585937-12.972657-.746094-.019531-1.523438-.070312-2.316407-.140625-12.417968-1.140625-22.5-10.40625-24.523437-22.542968-.253906-1.519532-.40625-3.015626-.457031-4.449219-.253906-6.953125-5.949219-12.398438-12.96875-12.398438h-111.714844v-28.125h191.503906c3.15625 0 5.726563 2.566407 5.726563 5.722657v250.046874h-197.230469zm197.230469 202.347657c0 3.15625-2.566407 5.722656-5.722657 5.722656h-191.507812v-41.15625h191.507812c1.984376 0 3.902344-.300781 5.722657-.824219zm0-56.179688c0 3.15625-2.566407 5.722657-5.722657 5.722657h-191.507812v-40.34375h191.507812c1.984376 0 3.902344-.296876 5.722657-.820313zm0-55.363281c0 3.15625-2.566407 5.722656-5.722657 5.722656h-191.507812v-9.886718c0-4.148438-3.359375-7.511719-7.507812-7.511719-4.148438 0-7.511719 3.363281-7.511719 7.511719v121.429687h-57.460938v-435.714844h57.460938v279.320313c0 4.148437 3.363281 7.511718 7.511719 7.511718 4.144531 0 7.507812-3.363281 7.507812-7.511718v-7.03125h197.230469zm0 0" data-original="#000000" class="active-path" data-old_color="#000000" fill="#684966"/></g> </svg>
