<?xml version="1.0"?>
<svg xmlns="http://www.w3.org/2000/svg" id="Out_line" data-name="Out line" viewBox="0 0 512 512" width="512px" height="512px"><g><path d="M376,144H136a8.00008,8.00008,0,0,0-8,8V280a8.00008,8.00008,0,0,0,8,8h40v16a7.99934,7.99934,0,0,0,.84473,3.57812L200,353.88867V368h-8a8.00008,8.00008,0,0,0-8,8v24H160a8.00008,8.00008,0,0,0-8,8v88h16V416H320v80h16V408a8.00008,8.00008,0,0,0-8-8h-8V376a8.00008,8.00008,0,0,0-8-8h-8V353.88867l31.15527-62.31055A7.99934,7.99934,0,0,0,336,288h40a8.00008,8.00008,0,0,0,8-8V152A8.00008,8.00008,0,0,0,376,144Zm-8,47.19507A40.12034,40.12034,0,0,1,336.80493,160H368ZM320.58057,272h-5.26709l-29.47437-29.47388a39.93126,39.93126,0,1,0-55.58142,3.99512,25.82377,25.82377,0,0,0,5.5094,18.99341L240.95508,272H191.41943A56.11348,56.11348,0,0,0,144,224.58057V207.41943A56.11348,56.11348,0,0,0,191.41943,160H320.58057A56.11348,56.11348,0,0,0,368,207.41943v17.16114A56.11348,56.11348,0,0,0,320.58057,272Zm-82.90186-40.99219c-.0625.0625-.115.13111-.17676.19409a23.94848,23.94848,0,1,1,36.98743-.02563l-.1676-.16748a25.90979,25.90979,0,0,0-36.64307-.001ZM175.19507,160A40.12034,40.12034,0,0,1,144,191.19507V160ZM144,240.80493A40.12,40.12,0,0,1,175.19507,272H144ZM200,400V384H304v16Zm88.84473-51.57812A7.99934,7.99934,0,0,0,288,352v16H216V352a7.99934,7.99934,0,0,0-.84473-3.57812L192,302.11133V288h60.41309l-.6211.59277a43.3178,43.3178,0,0,0-1.61426,60.89356l11.64454-10.97266a27.27883,27.27883,0,0,1,1.0166-38.34668l6.68457-6.37988a7.99962,7.99962,0,0,0,.72363-10.78418l-21.98633-27.4834a9.91015,9.91015,0,0,1,14.74707-13.19726l43.33545,43.335A8.00035,8.00035,0,0,0,312,288h7.05566ZM336.80493,272A40.12,40.12,0,0,1,368,240.80493V272Z" data-original="#000000" class="active-path" data-old_color="#000000" fill="#FFFFFF"/><path d="M408,16H104a8.00008,8.00008,0,0,0-8,8V88a8.00008,8.00008,0,0,0,8,8h24v24a8.00008,8.00008,0,0,0,8,8H376a8.00008,8.00008,0,0,0,8-8V96h24a8.00008,8.00008,0,0,0,8-8V24A8.00008,8.00008,0,0,0,408,16ZM216.87231,64a39.938,39.938,0,0,0,78.25538,0H368v.58057A56.11348,56.11348,0,0,0,320.58057,112H191.41943A56.11348,56.11348,0,0,0,144,64.58057V64Zm16.57386,0h45.10766a23.92915,23.92915,0,0,1-45.10766,0ZM144,80.80493A40.12034,40.12034,0,0,1,175.19507,112H144ZM336.80493,112A40.12034,40.12034,0,0,1,368,80.80493V112ZM400,80H384V56a8.00008,8.00008,0,0,0-8-8H136a8.00008,8.00008,0,0,0-8,8V80H112V32H400Z" data-original="#000000" class="active-path" data-old_color="#000000" fill="#FFFFFF"/><circle cx="192" cy="440" r="8" data-original="#000000" class="active-path" data-old_color="#000000" fill="#FFFFFF"/></g> </svg>
